<svg width="16" height="41" viewBox="0 0 16 41" fill="none" xmlns="http://www.w3.org/2000/svg">
<path d="M9.76796 7.875V14H6.23204V7.875L0 0H16L9.76796 7.875Z" fill="white"/>
<path d="M11.7254 32.4088C11.8495 32.2847 11.9496 32.1375 12.0106 31.9661L11.7249 30.5928L5.05565 23.9433C5.05548 23.9431 5.0553 23.943 5.05513 23.9428C4.76985 23.6577 4.41431 23.5 4.00939 23.5C3.60423 23.5 3.2485 23.6579 2.96313 23.9433C2.67499 24.2315 2.51981 24.5916 2.51981 24.9999C2.51981 25.3976 2.66131 25.7538 2.94334 26.0358L8.40853 31.501L2.94334 36.9662C2.65797 37.2516 2.50002 37.6073 2.50002 38.0125C2.50002 38.4177 2.65797 38.7734 2.94334 39.0588C3.23395 39.3494 3.5982 39.5021 4.00939 39.5021C4.41016 39.5021 4.77103 39.3632 5.05565 39.0785L11.7254 32.4088Z" fill="white" stroke="white"/>
</svg>
