<svg id="Cursos" xmlns="http://www.w3.org/2000/svg" viewBox="0 0 100 100">
    <defs>
        <style>.cls-1{fill:#e5b2b2;}.cls-2{fill:#fff;}.cls-3{fill:#c66;}</style>
    </defs>
    <circle class="cls-1" cx="50" cy="50" r="50"/>
    <circle class="cls-2" cx="50" cy="50" r="44.35"/>
    <path class="cls-3" d="M50,56.38a4.13,4.13,0,0,1-1.19-.16L31.38,51.47v9.76a1.85,1.85,0,0,0,1,1.66l3.15,1.86a29,29,0,0,0,28.93,0l3.15-1.86a1.91,1.91,0,0,0,1-1.66V51.47L51.16,56.22a4.13,4.13,0,0,1-1.19.16Z"/>
    <path class="cls-3" d="M81.33,39.93,50.49,31.46a1.65,1.65,0,0,0-1,0L18.62,39.93a1.94,1.94,0,0,0,0,3.72l4,1.08V58.21a2.84,2.84,0,1,0,2.58,0V45.46l24.28,6.66a1.8,1.8,0,0,0,1,0l30.84-8.47a1.9,1.9,0,0,0,1.39-1.86,1.93,1.93,0,0,0-1.45-1.86Z"/>
</svg>
