<?xml version="1.0" encoding="UTF-8"?>
<!DOCTYPE svg>
<svg xmlns="http://www.w3.org/2000/svg" viewBox="0 0 100 100">
    <defs>
        <style>.cls-1{fill:#c66;}.cls-2{fill:#fff;}</style>
    </defs>
    <g id="Categorias">
        <circle class="cls-1" cx="50" cy="50" r="50"/>
        <path class="cls-2" d="M49.3,70.8,28.73,48.19a9.49,9.49,0,0,1-2.48-6.4V31.37l-3.84,8.92a5.94,5.94,0,0,0-.17,4.29l10,28.9a6.05,6.05,0,0,0,3.09,3.45,6.1,6.1,0,0,0,2.29.58,6.22,6.22,0,0,0,2.34-.34l11.93-4.4A10,10,0,0,1,49.3,70.8Z"/>
        <path class="cls-2" d="M77.65,47.24a5.84,5.84,0,0,0-1.28-2l-21-20.92a5.72,5.72,0,0,0-4.2-1.88H35.8a6,6,0,0,0-4.28,1.79,5.23,5.23,0,0,0-.48.56,5.83,5.83,0,0,0-.8,1.42,5.72,5.72,0,0,0-.44,2.31V41.79a5.93,5.93,0,0,0,1.56,4l20.57,22.6a6.1,6.1,0,0,0,1.9,1.39,6,6,0,0,0,2.3.55h.24A6,6,0,0,0,58.46,70a5.91,5.91,0,0,0,2-1.25l3.59-3.41L76.22,53.77a6,6,0,0,0,1.35-1.92,5.83,5.83,0,0,0,.51-2.29A5.73,5.73,0,0,0,77.65,47.24ZM44.29,35.37a4.11,4.11,0,0,1-1.22,1.09,4.36,4.36,0,0,1-1.55.51,4.19,4.19,0,0,1-.5,0,6.26,6.26,0,0,1-.63,0l-.49-.11a4.2,4.2,0,0,1-3-3.53,3.43,3.43,0,0,1,0-1,3.91,3.91,0,0,1,.52-1.62,3.08,3.08,0,0,1,.32-.48,4.2,4.2,0,0,1,2.77-1.59l.51,0a4.16,4.16,0,0,1,4.14,3.65,4.26,4.26,0,0,1,0,.5,4.17,4.17,0,0,1-.5,2A3,3,0,0,1,44.29,35.37Z"/>
    </g>
</svg>