<svg xmlns="http://www.w3.org/2000/svg" viewBox="0 0 100 100">
    <defs>
        <style>.cls-1{fill:#c66;}.cls-2{fill:#f5e0e0;}</style>
    </defs>
    <g id="Competencias">
        <circle class="cls-1" cx="50" cy="50" r="50"/>
        <circle class="cls-2" cx="50" cy="50" r="44.35"/>
        <path class="cls-1" d="M53.92,52.06a6.2,6.2,0,0,0-1,9.64,6,6,0,0,0,4.46,1.8,2.49,2.49,0,0,1,1.91.76,2.66,2.66,0,0,1,.6,2.72l-7.74,7.63a3,3,0,0,1-4.3,0L41,67.69a2.63,2.63,0,0,0-3.65,0,2.73,2.73,0,0,0-.76,1.91,6.38,6.38,0,0,1-1.8,4.46,6.22,6.22,0,0,1-9.69-7.68,6.31,6.31,0,0,1,5.33-2.94A2.59,2.59,0,0,0,32.3,59l-6.86-6.86a3,3,0,0,1,0-4.3L32.35,41a2.63,2.63,0,0,0,0-3.65,2.7,2.7,0,0,0-1.9-.76A6.38,6.38,0,0,1,26,34.74a6.23,6.23,0,0,1,1-9.64,6.1,6.1,0,0,1,6.64,0,6.32,6.32,0,0,1,2.94,5.34,2.41,2.41,0,0,0,.76,1.85,2.54,2.54,0,0,0,3.65,0l6.87-6.81a3,3,0,0,1,4.3,0L59.1,32.4a2.56,2.56,0,0,0,3.59,0,2.73,2.73,0,0,0,.76-1.91A6.42,6.42,0,0,1,65.25,26a6.22,6.22,0,0,1,9.69,7.68,6.36,6.36,0,0,1-5.33,2.95,2.77,2.77,0,0,0-1.91.7,2.57,2.57,0,0,0,0,3.6l6.92,6.92a3,3,0,0,1,0,4.3l-7.68,7.68a2.48,2.48,0,0,1-2.73-.6,2.73,2.73,0,0,1-.76-1.91A6,6,0,0,0,60.51,52a6.14,6.14,0,0,0-6.59.06Z"/>
    </g>
</svg>
