<svg width="110" height="110" viewBox="0 0 110 110" fill="none" xmlns="http://www.w3.org/2000/svg">
<path d="M63.1482 81.4815C63.1482 83.093 62.6703 84.6684 61.7749 86.0083C60.8796 87.3483 59.6071 88.3927 58.1182 89.0094C56.6293 89.6261 54.991 89.7874 53.4104 89.4731C51.8298 89.1587 50.3779 88.3826 49.2384 87.2431C48.0989 86.1035 47.3228 84.6517 47.0084 83.0711C46.694 81.4905 46.8554 79.8522 47.4721 78.3633C48.0888 76.8744 49.1332 75.6019 50.4731 74.7065C51.8131 73.8112 53.3885 73.3333 55 73.3333C57.161 73.3333 59.2335 74.1918 60.7616 75.7199C62.2897 77.2479 63.1482 79.3204 63.1482 81.4815ZM110 55C110 65.878 106.774 76.5116 100.731 85.5564C94.6874 94.6011 86.0975 101.651 76.0476 105.813C65.9977 109.976 54.939 111.065 44.27 108.943C33.6011 106.821 23.801 101.583 16.1091 93.8909C8.41726 86.199 3.17902 76.3989 1.05683 65.7299C-1.06535 55.061 0.0238307 44.0023 4.18665 33.9524C8.34947 23.9025 15.399 15.3126 24.4437 9.26917C33.4884 3.22569 44.122 0 55 0C69.582 0.0161752 83.562 5.816 93.873 16.127C104.184 26.438 109.984 40.418 110 55ZM97.7778 55C97.7778 46.5393 95.2689 38.2687 90.5684 31.2339C85.8679 24.1992 79.187 18.7162 71.3704 15.4785C63.5537 12.2407 54.9526 11.3936 46.6545 13.0442C38.3564 14.6948 30.7341 18.769 24.7516 24.7515C18.769 30.7341 14.6948 38.3564 13.0442 46.6545C11.3936 54.9525 12.2408 63.5537 15.4785 71.3703C18.7163 79.1869 24.1992 85.8679 31.234 90.5684C38.2687 95.2689 46.5394 97.7778 55 97.7778C66.3417 97.7656 77.2153 93.2548 85.2351 85.235C93.2548 77.2153 97.7656 66.3416 97.7778 55ZM55 22.4074C42.6454 22.4074 32.5926 31.5435 32.5926 42.7778V44.8148C32.5926 46.4356 33.2365 47.99 34.3825 49.136C35.5286 50.2821 37.083 50.9259 38.7037 50.9259C40.3245 50.9259 41.8789 50.2821 43.0249 49.136C44.171 47.99 44.8148 46.4356 44.8148 44.8148V42.7778C44.8148 38.2861 49.3982 34.6296 55 34.6296C60.6019 34.6296 65.1852 38.2861 65.1852 42.7778C65.1852 47.2694 60.6019 50.9259 55 50.9259C53.3792 50.9259 51.8249 51.5698 50.6788 52.7158C49.5327 53.8619 48.8889 55.4163 48.8889 57.037V61.1111C48.8853 62.6209 49.4407 64.0786 50.448 65.2032C51.4554 66.3279 52.8434 67.0398 54.3445 67.2017C55.8456 67.3636 57.3536 66.9642 58.5776 66.0803C59.8017 65.1964 60.6552 63.8907 60.9736 62.4148C70.4357 60.0315 77.4074 52.1329 77.4074 42.7778C77.4074 31.5435 67.3546 22.4074 55 22.4074Z" fill="url(#paint0_linear_770_370)" fill-opacity="0.4"/>
<defs>
<linearGradient id="paint0_linear_770_370" x1="13.3299" y1="110" x2="105.9" y2="107.96" gradientUnits="userSpaceOnUse">
<stop stop-color="#2D56A1"/>
<stop offset="1" stop-color="#34A5DE"/>
</linearGradient>
</defs>
</svg>
