<svg width="26" height="15" viewBox="0 0 26 15" fill="none" xmlns="http://www.w3.org/2000/svg">
<path d="M25.0053 2.83641L13.9235 13.9512C13.7916 14.0831 13.6486 14.1763 13.4947 14.2309C13.3408 14.2863 13.1759 14.314 13 14.314C12.8241 14.314 12.6592 14.2863 12.5053 14.2309C12.3514 14.1763 12.2084 14.0831 12.0765 13.9512L0.961741 2.83641C0.653914 2.52858 0.5 2.1438 0.5 1.68206C0.5 1.22032 0.664908 0.824538 0.994723 0.494722C1.32454 0.164907 1.70932 -9.39253e-07 2.14908 -9.34009e-07C2.58883 -9.28765e-07 2.97361 0.164907 3.30343 0.494722L13 10.1913L22.6966 0.494723C23.0044 0.186895 23.3835 0.0329812 23.8338 0.0329812C24.285 0.0329812 24.6755 0.197888 25.0053 0.527704C25.3351 0.857519 25.5 1.2423 25.5 1.68206C25.5 2.12181 25.3351 2.5066 25.0053 2.83641Z" fill="#FDFDFD"/>
</svg>
