<svg width="47" height="46" viewBox="0 0 47 46" fill="none" xmlns="http://www.w3.org/2000/svg">
<path d="M20.9514 0.222843C18.3427 1.09238 16.5145 2.6754 15.422 4.99417C13.7721 8.53923 14.6416 12.8201 17.5401 15.451C18.588 16.3874 20.5054 17.3238 21.754 17.4799L22.6236 17.6137V19.3528V21.1141H14.597H6.57047V23.7897C6.57047 25.2612 6.48129 26.4652 6.39211 26.4652C6.28063 26.4652 5.99078 26.153 5.70093 25.774C5.07665 24.9491 4.2517 24.9491 4.16251 25.7963C4.09562 26.5098 6.48129 29.6758 7.17247 29.765C7.79675 29.8542 10.4277 26.4875 10.3162 25.7294C10.2047 24.9268 9.22369 24.9713 8.68859 25.7963C8.44333 26.153 8.15349 26.4652 8.0643 26.4652C7.97512 26.4652 7.93053 25.5956 7.95282 24.5031L8.01971 22.5634L15.3328 22.4965L22.6236 22.4519V24.5031V26.5767L22.0439 25.8409C21.4196 25.0605 20.5277 24.8822 20.3048 25.5065C20.0595 26.1084 22.7796 29.8096 23.4708 29.8096C23.9836 29.8096 26.7037 26.1753 26.5922 25.6402C26.4585 24.9268 25.5443 25.0159 24.8309 25.8409L24.1843 26.5767L24.2512 24.57L24.2958 22.5634H31.5419H38.7881L38.8327 24.57L38.8996 26.5767L38.2753 25.8409C37.5841 25.0159 36.7815 24.8822 36.5585 25.5733C36.3802 26.153 39.0111 29.8096 39.6131 29.8096C40.3043 29.8096 43.0244 26.1084 42.7791 25.5065C42.5338 24.8822 41.6643 25.0605 41.0846 25.8409L40.5718 26.5767L40.4603 23.9011L40.3488 21.2256L32.3223 21.1141L24.2958 21.0027V19.3528V17.7029L25.4106 17.4353C33.504 15.5625 34.8194 4.48137 27.3726 0.824833C26.1017 0.200546 25.6112 0.0890656 23.8721 0.0221786C22.579 -0.0447083 21.5311 0.0444756 20.9514 0.222843ZM23.9836 2.96524C24.1397 3.16591 24.4964 3.99086 24.7417 4.81581L25.2099 6.28734L26.9713 6.35423C29.7583 6.46571 29.9812 6.97852 27.93 8.53923C27.1496 9.11893 26.5031 9.60944 26.4585 9.65403C26.4139 9.67633 26.6145 10.4344 26.8821 11.3485C27.6847 14.0463 27.1273 14.4031 24.8086 12.7755L23.4262 11.8167L22.0885 12.7755C20.6615 13.8234 20.171 13.9571 19.7251 13.422C19.5021 13.1545 19.569 12.7755 20.0149 11.4154L20.5946 9.74321L19.1454 8.67301C17.986 7.82576 17.7407 7.51362 17.7853 7.0677C17.8299 6.5326 17.8745 6.5103 19.7697 6.44341L21.7094 6.37653L22.1776 4.77122C22.7796 2.78688 23.3593 2.20718 23.9836 2.96524Z" fill="white"/>
<path d="M5.23272 31.7939C3.24838 32.3959 1.55388 33.8897 0.617454 35.8071C-0.162904 37.3901 -0.207496 40.0434 0.505974 41.6933C1.17485 43.1648 2.78016 44.8147 4.18481 45.439C5.79011 46.1525 8.66629 46.197 10.1601 45.5059C11.6985 44.7924 13.014 43.4769 13.7498 41.9608C14.2626 40.846 14.3741 40.3332 14.3741 38.8394C14.3741 37.3456 14.2626 36.8327 13.7275 35.718C12.5458 33.1762 9.98175 31.5709 7.17246 31.6155C6.4144 31.6155 5.54486 31.7047 5.23272 31.7939Z" fill="white"/>
<path d="M21.5089 31.7939C19.3908 32.4851 17.7409 33.912 16.8491 35.8072C16.0464 37.5908 16.0464 40.1103 16.8491 41.8494C17.5625 43.3655 18.7219 44.5695 20.238 45.3498C21.2414 45.8626 21.665 45.9518 23.4041 45.9741C25.1655 45.9741 25.5668 45.9072 26.6816 45.3498C28.0639 44.681 29.2456 43.4993 30.026 42.0277C30.4719 41.2028 30.5388 38.8394 30.5388 38.8394C30.5388 38.8394 30.4719 36.476 30.026 35.6511C28.6659 33.1094 26.5701 31.7939 23.7608 31.6824C22.8244 31.6378 21.8211 31.6824 21.5089 31.7939Z" fill="white"/>
<path d="M37.3172 31.95C35.6673 32.5297 34.2404 33.7559 33.3486 35.3835C32.5905 36.7436 32.5459 36.9443 32.5459 38.8394C32.5682 40.5116 32.6574 41.0244 33.081 41.8494C33.9728 43.5216 34.7978 44.4134 36.2693 45.2161C37.5848 45.9295 37.8077 45.9741 39.6806 45.9741C42.0663 45.9741 43.3148 45.4613 44.8756 43.9006C46.3694 42.4291 46.8153 41.2474 46.8153 38.8394C46.8153 36.5206 46.3917 35.3612 45.0316 33.8674C43.2925 31.9277 39.8367 31.0804 37.3172 31.95Z" fill="white"/>
</svg>
