<svg width="60" height="46" viewBox="0 0 60 46" fill="none" xmlns="http://www.w3.org/2000/svg">
<path d="M22.9459 0.30265C22.7191 0.5295 22.6435 2.01662 22.6435 5.46976C22.6435 11.1914 22.4166 10.8385 26.021 10.8385C27.861 10.8385 28.4911 10.7377 28.7936 10.4352C29.1213 10.1076 29.1969 9.27578 29.1969 5.31853C29.1969 1.99141 29.096 0.504294 28.8944 0.30265C28.6928 0.101007 27.6593 0.000185966 25.9202 0.000185966C24.181 0.000185966 23.1476 0.101007 22.9459 0.30265Z" fill="white"/>
<path d="M0.0850683 5.84769C0.00945204 6.02413 -0.0157534 13.7622 0.00945203 23.063L0.0850683 39.9506L18.5858 40.0262L37.0614 40.0767L36.9102 39.5221C36.5069 38.2367 36.4817 34.4054 36.8346 33.0696L37.1875 31.7589H32.4488C28.4916 31.7589 27.6598 31.6833 27.3321 31.3556C27.1053 31.1539 26.9288 30.7759 26.9288 30.5238C26.9288 29.566 27.3573 29.4904 32.8521 29.4904H38.1705L39.4811 27.852L40.7918 26.2137H35.8012C30.6593 26.2137 30.2056 26.1381 30.2056 25.1803C30.2056 24.9282 30.382 24.5501 30.6088 24.3485C30.9365 23.9956 31.9699 23.9452 37.8428 23.9452C43.5896 23.9452 44.8751 23.8696 45.8329 23.5167C46.5891 23.2394 48.0694 23.0882 49.4373 23.0882H51.8318V14.3671L51.7562 5.67125H41.674H31.5919L31.4658 9.1496C31.365 11.8718 31.2642 12.6784 30.9617 12.8548C30.7601 12.9808 28.4916 13.1069 25.9206 13.1069C23.3497 13.1069 21.0812 12.9808 20.8795 12.8548C20.5771 12.6784 20.4763 11.8718 20.3754 9.1496L20.2494 5.67125L10.2176 5.59564C2.32835 5.54523 0.160685 5.59564 0.0850683 5.84769ZM18.233 14.6444C21.3837 15.8038 23.4757 18.0471 24.4587 21.2482C25.1897 23.7183 24.988 25.7096 23.7278 28.2049C23.1984 29.2383 22.6439 30.1205 22.4927 30.1709C22.3415 30.2213 22.0642 29.8937 21.8626 29.44C20.5015 26.1381 15.8889 24.3233 12.3097 25.6844C10.7218 26.2641 9.00779 27.8268 8.22642 29.3139C7.77272 30.2465 7.72231 30.2717 7.26861 29.8685C7.01656 29.6416 6.48725 28.7594 6.10917 27.9024C5.45382 26.5161 5.37821 26.0624 5.37821 23.8192C5.37821 21.6263 5.45382 21.1222 6.05875 19.8619C7.24341 17.3414 9.5371 15.2997 12.1333 14.4932C13.7968 13.9638 16.5946 14.0395 18.233 14.6444ZM47.5973 19.1562C47.8998 19.7359 47.5973 20.5173 46.942 20.7693C46.7403 20.8449 43.7913 20.9205 40.4137 20.9205C35.171 20.9205 34.2132 20.8701 33.8855 20.5173C33.4066 20.0636 33.3562 19.383 33.7847 18.9545C34.0116 18.7277 35.902 18.652 40.7162 18.652C47.068 18.652 47.3452 18.6773 47.5973 19.1562Z" fill="white"/>
<path d="M13.0404 17.2149C10.6711 18.7776 10.8727 22.3316 13.4185 23.5414C15.082 24.3228 16.67 23.9195 17.9555 22.4324C18.7872 21.4242 18.8628 19.5085 18.1067 18.2735C17.0985 16.6603 14.6535 16.131 13.0404 17.2149Z" fill="white"/>
<path d="M47.9005 26.2389C42.6325 27.1211 38.8265 32.4143 39.7591 37.5814C40.364 41.0345 42.204 43.5299 45.2791 45.0422C47.0939 45.9496 47.3207 46 49.5892 46C51.7821 46 52.1602 45.9244 53.6977 45.1934C56.7728 43.7315 58.7892 41.211 59.4446 37.9595C60.8309 31.2044 54.7815 25.0795 47.9005 26.2389ZM52.7651 30.6751C55.5881 32.0866 55.6889 32.1622 55.6133 32.8932L55.5377 33.6493H49.6144H43.6912V32.8932C43.6912 32.1874 43.8676 32.0614 46.5898 30.6751C48.1777 29.8937 49.564 29.2384 49.6648 29.2384C49.7657 29.2384 51.1772 29.8937 52.7651 30.6751ZM46.5394 36.7244L46.4638 39.1945H45.7076H44.9514L44.8758 36.7244L44.8002 34.2795H45.7076H46.615L46.5394 36.7244ZM49.1103 36.8V39.3206H48.3542H47.598V36.8V34.2795H48.3542H49.1103V36.8ZM51.8325 36.7244L51.7569 39.1945H51.0007H50.2446L50.169 36.7244L50.0933 34.2795H51.0007H51.9081L51.8325 36.7244ZM54.4035 36.8V39.3206H53.6473H52.8911V36.8V34.2795H53.6473H54.4035V36.8ZM55.6637 40.5808V41.337H49.7405C44.6994 41.337 43.792 41.2866 43.666 40.9589C43.5651 40.7573 43.5651 40.4044 43.666 40.2028C43.792 39.8751 44.6994 39.8247 49.7405 39.8247H55.6637V40.5808Z" fill="white"/>
<path d="M48.9573 31.1032C48.7052 31.7585 49.0581 32.313 49.663 32.2122C50.0915 32.1618 50.2428 31.9602 50.2428 31.5065C50.2428 31.0528 50.0915 30.8511 49.663 30.8007C49.3354 30.7503 49.0329 30.8763 48.9573 31.1032Z" fill="white"/>
</svg>
