<svg width="50" height="46" viewBox="0 0 50 46" fill="none" xmlns="http://www.w3.org/2000/svg">
<path d="M10.6879 0.281407C10.5236 0.445694 10.4062 1.22019 10.4062 2.1355C10.4062 3.82531 10.7348 4.45898 11.5797 4.45898C12.4246 4.45898 12.7532 3.82531 12.7532 2.1355C12.7532 0.422225 12.5185 -0.000226974 11.5797 -0.000226974C11.2512 -0.000226974 10.8522 0.117121 10.6879 0.281407Z" fill="white"/>
<path d="M17.5642 3.02739C16.6724 3.54372 15.5693 4.83454 15.5693 5.30393C15.5693 6.00802 16.0622 6.57129 16.6724 6.57129C17.3765 6.57129 19.5592 4.55291 19.5592 3.89576C19.5592 3.02739 18.7612 2.58147 18.4561 2.58147C18.3387 2.58147 17.9398 2.76923 17.5642 3.02739Z" fill="white"/>
<path d="M3.83433 3.26215C3.45882 3.98971 3.52923 4.17747 4.67923 5.39788C5.80577 6.59483 6.69761 6.89993 7.30782 6.28972C7.84762 5.74993 7.58946 5.02237 6.46292 3.9193C5.21903 2.69889 4.28025 2.46419 3.83433 3.26215Z" fill="white"/>
<path d="M27.2099 4.59993C26.7171 5.09279 26.7405 5.93769 27.2569 6.38362C27.4681 6.57137 28.0783 6.80607 28.5712 6.87648C29.7681 7.06423 30.5661 7.8622 30.7538 9.05914C30.8242 9.552 31.0589 10.1622 31.2467 10.3734C31.9508 11.1949 33.4059 10.6551 33.4059 9.59894C33.4059 8.1673 34.6967 6.80607 36.0814 6.80607C36.8324 6.80607 37.3957 6.21933 37.3957 5.42137C37.3957 4.52952 36.9967 4.22442 35.8232 4.22442C34.861 4.22442 33.7814 4.6234 32.5375 5.3979C32.0916 5.67953 31.9742 5.67953 31.5987 5.32749C30.4487 4.29483 27.914 3.87238 27.2099 4.59993Z" fill="white"/>
<path d="M9.35004 6.64173C7.09697 7.90908 6.32247 10.702 7.63677 12.9081C8.64596 14.6448 10.8052 15.5367 12.7297 15.0203C13.9031 14.7152 15.2878 13.5418 15.7103 12.5091C16.3909 10.9366 16.0154 8.70704 14.8889 7.41622C13.7154 6.07846 11.0399 5.67947 9.35004 6.64173ZM12.049 8.47235V9.83358L12.9644 9.50501C13.6919 9.24684 13.9501 9.24684 14.1378 9.48154C14.5133 9.92746 14.1144 10.2795 12.6827 10.7724C11.3684 11.2183 11.345 11.2183 11.1103 10.7958C10.8735 10.1547 10.9702 8.31715 11.0669 7.44673C11.1215 6.95591 12.049 6.4796 12.049 8.47235Z" fill="white"/>
<path d="M1.13517 9.85679C0.783123 10.2323 0.736184 10.467 0.92394 10.9833C1.13517 11.5701 1.25251 11.617 2.66069 11.6874C4.6556 11.7813 5.19539 11.617 5.38315 10.8894C5.64132 9.85679 4.9607 9.3874 3.13008 9.3874C1.83925 9.3874 1.48721 9.48128 1.13517 9.85679Z" fill="white"/>
<path d="M18.0336 9.85714C17.6816 10.2327 17.6346 10.4673 17.8224 10.9837C18.0336 11.5939 18.1275 11.6174 19.8408 11.6878C21.2255 11.7347 21.6948 11.6643 22 11.3827C22.4928 10.8663 22.4693 10.4204 21.9061 9.85714C21.2255 9.17652 18.6438 9.17652 18.0336 9.85714Z" fill="white"/>
<path d="M36.5042 14.2223C36.2225 14.41 35.9878 14.7855 35.9878 15.0202C35.9878 15.3723 35.7062 15.5131 34.697 15.7243C29.4868 16.8039 25.2153 21.9437 25.1919 27.154C25.1919 28.8438 25.2623 28.8672 30.9654 28.8672H35.9878V36.0254V43.2071L33.1246 43.1367L30.2613 43.0663L27.6327 39.3347C26.201 37.2693 24.8163 35.5091 24.5816 35.4152C24.3235 35.3214 20.5684 35.2275 16.2265 35.2275L8.31726 35.204L7.19072 33.4438C3.76417 28.0458 3.24784 27.3417 2.63763 27.2713C1.88661 27.1774 1.25293 27.7642 1.25293 28.5387C1.25293 28.9142 2.96621 31.8244 5.71214 36.0959L10.1714 43.0663L6.04071 43.1837C2.30906 43.301 1.88661 43.3479 1.5815 43.7469C1.13558 44.3806 1.15905 44.9673 1.72232 45.5306C2.19171 46 2.49681 46 25.1919 46C47.8869 46 48.192 46 48.6614 45.5306C49.2247 44.9673 49.2481 44.3806 48.8022 43.7469C48.4971 43.3245 48.0981 43.301 43.5216 43.2306L38.5695 43.1602V36.002V28.8672H43.592C49.2951 28.8672 49.3655 28.8438 49.3655 27.154C49.3655 25.6284 48.7318 23.305 47.8869 21.7325C46.3614 18.8692 43.0756 16.3815 39.8603 15.7243C38.8511 15.5131 38.5695 15.3723 38.5695 15.0202C38.5695 14.5743 37.748 13.8467 37.2787 13.8467C37.1378 13.8467 36.7858 14.011 36.5042 14.2223Z" fill="white"/>
<path d="M4.82021 15.7948C3.52938 17.0857 3.3651 17.5785 3.97531 18.1653C4.63245 18.8224 5.36001 18.6112 6.51001 17.3673C7.68349 16.1234 7.82431 15.5367 7.16716 14.9499C6.48654 14.3397 6.1345 14.4571 4.82021 15.7948Z" fill="white"/>
<path d="M15.9684 14.9734C15.3582 15.654 15.499 16.1234 16.6491 17.3673C17.7991 18.6112 18.5266 18.8224 19.1838 18.1653C19.794 17.5785 19.6297 17.1326 18.3154 15.7948C16.9542 14.4571 16.5552 14.3163 15.9684 14.9734Z" fill="white"/>
<path d="M10.9226 17.039C10.4767 17.3441 10.4062 17.6023 10.4062 19.0105C10.4062 20.7237 10.7348 21.3574 11.5797 21.3574C12.4246 21.3574 12.7532 20.7237 12.7532 19.0105C12.7532 16.8513 12.143 16.1707 10.9226 17.039Z" fill="white"/>
</svg>
