<svg width="46" height="46" viewBox="0 0 46 46" fill="none" xmlns="http://www.w3.org/2000/svg">
<path d="M11.6059 5.38411C5.60556 8.33073 0.515953 10.8487 0.355228 11.0095C-0.100157 11.3845 -0.126945 16.0723 0.328441 16.5277C0.569528 16.7688 5.90022 16.8491 22.6691 16.8491C41.206 16.8491 44.7152 16.7955 44.983 16.4741C45.1973 16.233 45.2777 15.2151 45.2241 13.6078L45.1438 11.0898L36.8397 6.96457C32.2858 4.71443 27.1962 2.2232 25.5354 1.41957L22.5352 -0.00015831L11.6059 5.38411ZM23.8478 6.00022C26.9819 7.63425 25.9372 12.0274 22.4013 12.0274C21.1958 12.0274 19.9368 10.9827 19.535 9.61652C19.1332 8.25036 19.8297 6.75027 21.169 6.08058C22.3209 5.49126 22.8566 5.49126 23.8478 6.00022Z" fill="white"/>
<path d="M4.56152 28.6359V37.7437H7.3742H10.1869V28.6359V19.5282H7.3742H4.56152V28.6359Z" fill="white"/>
<path d="M14.7402 28.6359V37.7437H17.5529H20.3656V28.6359V19.5282H17.5529H14.7402V28.6359Z" fill="white"/>
<path d="M24.9189 28.6359V37.7437H27.7316H30.5443V28.6359V19.5282H27.7316H24.9189V28.6359Z" fill="white"/>
<path d="M34.8301 28.6359V37.7437H37.6428H40.4554V28.6359V19.5282H37.6428H34.8301V28.6359Z" fill="white"/>
<path d="M0.303058 40.7969C0.0887583 41.038 0.00839607 42.0291 0.0619709 43.556L0.142333 45.9133L22.3491 45.9936C38.5287 46.0204 44.6362 45.9668 44.9041 45.7525C45.3863 45.3507 45.413 41.1987 44.9577 40.7433C44.7166 40.5022 39.3859 40.4219 22.617 40.4219C4.08008 40.4219 0.570932 40.4754 0.303058 40.7969Z" fill="white"/>
</svg>
