<svg width="74" height="46" viewBox="0 0 74 46" fill="none" xmlns="http://www.w3.org/2000/svg">
<path d="M33.688 0.359367C33.3177 0.68988 33.2002 1.18192 33.1902 1.67817C33.1034 5.98653 33.1034 14.2631 33.1034 14.2631L33.0166 26.8192H34.0471C34.7639 26.8192 35.9628 26.819 35.9628 26.819C35.9628 26.819 35.9965 23.1441 35.9965 15.1021L36.0833 3.03793L53.5286 2.95114L70.945 2.89327V16.6355V30.3777H57.5211H44.0682L44.3865 31.2456C44.5311 31.7374 44.6179 32.4607 44.5311 32.8368L44.4154 33.5601H57.4632C65.506 33.5601 70.9161 33.4443 71.5815 33.2707C72.1601 33.0972 72.9123 32.6343 73.2595 32.2003C73.8381 31.477 73.8381 31.1299 73.8381 16.7223C73.8381 16.7223 73.8381 7.1838 73.8381 1.96748C73.8381 1.42423 73.6208 0.890556 73.1978 0.479092C72.7903 0.0826836 71.7019 0.000183105 71.7019 0.000183105H53.4708H35.0707C35.0707 0.000183105 34.052 0.0344658 33.688 0.359367Z" fill="white"/>
<path d="M14.5888 1.09885C12.5347 1.85106 11.1749 3.00829 10.0756 4.91773C9.2655 6.33535 9.17871 6.76931 9.17871 8.82341C9.17871 10.8486 9.29443 11.3404 10.0466 12.6712C11.6089 15.5354 13.8655 16.8951 17.1347 16.8951C20.6354 16.9241 23.3549 15.2461 24.7725 12.1794C25.5825 10.3857 25.5825 7.319 24.7436 5.46742C23.0366 1.67747 18.4945 -0.289833 14.5888 1.09885Z" fill="white"/>
<path d="M40.9158 8.1579C40.4529 8.62079 40.4818 9.98055 40.9736 10.3856C41.234 10.617 44.7925 10.6749 53.6164 10.646L65.8542 10.5592L66.2882 9.77803C66.6932 9.08369 66.6932 8.96796 66.2014 8.41828C65.6517 7.81073 65.4203 7.81073 53.4429 7.81073C44.3585 7.81073 41.1761 7.89752 40.9158 8.1579Z" fill="white"/>
<path d="M49.8833 15.6802C49.6808 15.8827 49.5361 16.3745 49.5361 16.7795C49.5361 18.1971 49.7097 18.2261 57.955 18.2261C65.6217 18.2261 65.7085 18.2261 66.1425 17.5896C66.7211 16.7795 66.7211 16.3456 66.1425 15.7959C65.7664 15.3908 64.6091 15.333 57.955 15.333C52.3424 15.333 50.1437 15.4198 49.8833 15.6802Z" fill="white"/>
<path d="M43.2588 15.9697C43.1431 16.1722 41.8412 19.2678 40.4236 22.8553L37.7909 29.3647L35.9972 29.4515C33.7695 29.5672 32.0047 29.1043 31.1368 28.1496C30.7896 27.7735 30.0663 26.4427 29.5745 25.2276C28.3594 22.3345 27.4915 21.1773 25.8424 20.4251C24.5984 19.8464 24.0487 19.8175 17.7128 19.8175C12.8524 19.8175 10.5958 19.9332 9.84359 20.1936C7.96308 20.859 6.60333 22.537 4.54923 26.6741C2.90017 30.0301 2.52407 31.1006 1.65614 35.0062C1.10645 37.4654 0.643555 40.0402 0.643555 40.6767C0.643555 42.9333 2.75551 44.4377 4.75175 43.5987C5.2725 43.3673 5.88005 42.9912 6.08257 42.7597C6.28509 42.4994 6.83477 40.4453 7.3266 38.1597C8.19453 33.9358 9.23604 30.6666 9.69894 30.6666C9.84359 30.6666 9.90145 31.4767 9.78573 32.4603C9.64107 34.0226 9.46749 43.7723 9.58321 44.756C9.58321 44.9296 9.81466 45.3057 10.075 45.5371C10.4511 45.9421 11.5216 46 17.2499 46C23.6147 46 24.0197 45.9711 24.5116 45.4214C25.0034 44.8717 25.0323 44.3509 24.8298 37.4075L24.6273 30.0012L25.9292 31.7081C28.3015 34.8327 30.4713 35.7006 35.7946 35.7295C37.7041 35.7295 39.6424 35.6427 40.0764 35.4981C41.7833 35.0352 42.5934 32.0842 41.4651 30.6087L40.8865 29.8855L43.3456 23.7232C44.6764 20.3383 45.7758 17.2716 45.7758 16.9244C45.7758 16.6062 45.6312 16.1722 45.4286 15.9697C44.9657 15.5068 43.5481 15.5357 43.2588 15.9697Z" fill="white"/>
<path d="M49.8837 23.2021C49.3341 23.7518 49.4498 25.1116 50.0863 25.4587C50.4334 25.6323 53.558 25.748 58.1869 25.748H65.7379L66.2008 25.0248C66.6058 24.4172 66.6348 24.1279 66.3744 23.5782L66.0272 22.855H58.1291C52.3718 22.855 50.1441 22.9417 49.8837 23.2021Z" fill="white"/>
</svg>
