<svg width="501" height="350" viewBox="0 0 501 350" fill="none" xmlns="http://www.w3.org/2000/svg">
<path d="M25.0653 331.011C17.926 282.059 40.2733 270.331 62.2888 250.445C107.161 221.38 325.915 258.093 323.365 186.195C320.816 114.297 184.158 164.779 184.158 95.9404C184.158 27.1019 350 71.3145 476 21.3145" stroke="#35A8E0" stroke-width="10.1983" stroke-dasharray="20.4 20.4"/>
<circle cx="141.746" cy="237.187" r="20.9065" fill="#35A8E0"/>
<circle cx="21.4065" cy="328.971" r="20.9065" fill="#35A8E0"/>
<circle cx="320.217" cy="188.235" r="20.9065" fill="#35A8E0"/>
<circle cx="202.936" cy="123.986" r="20.9065" fill="#35A8E0"/>
<circle cx="320.407" cy="45.221" r="20.9065" fill="#35A8E0"/>
<path d="M143.94 229.618V247.419H140.715V232.756H140.611L136.448 235.416V232.46L140.872 229.618H143.94Z" fill="#2F4C84"/>
<path d="M327.646 194.981V197.467H315.862V195.339L321.515 189.232C322.105 188.563 322.571 187.982 322.913 187.488C323.256 186.994 323.499 186.547 323.642 186.149C323.794 185.743 323.87 185.356 323.87 184.99C323.87 184.456 323.774 183.99 323.583 183.592C323.392 183.185 323.113 182.87 322.746 182.647C322.388 182.424 321.945 182.313 321.42 182.313C320.838 182.313 320.34 182.448 319.926 182.719C319.519 182.982 319.209 183.349 318.993 183.819C318.786 184.289 318.683 184.826 318.683 185.432H315.516C315.516 184.404 315.755 183.468 316.233 182.623C316.711 181.771 317.396 181.09 318.288 180.58C319.181 180.07 320.24 179.815 321.467 179.815C322.662 179.815 323.674 180.014 324.503 180.413C325.332 180.803 325.961 181.361 326.391 182.086C326.821 182.811 327.037 183.675 327.037 184.679C327.037 185.237 326.945 185.787 326.762 186.328C326.578 186.87 326.32 187.408 325.985 187.942C325.658 188.468 325.268 189.001 324.814 189.543C324.36 190.085 323.854 190.639 323.296 191.204L319.902 194.981H327.646Z" fill="#2F4C84"/>
<path d="M202.238 134.461C200.986 134.461 199.874 134.247 198.9 133.818C197.933 133.389 197.168 132.792 196.606 132.027C196.044 131.263 195.745 130.379 195.71 129.376H198.978C199.007 129.857 199.167 130.278 199.457 130.637C199.746 130.99 200.132 131.265 200.613 131.462C201.093 131.66 201.632 131.758 202.229 131.758C202.867 131.758 203.432 131.648 203.924 131.428C204.417 131.202 204.802 130.889 205.08 130.489C205.358 130.089 205.494 129.629 205.489 129.107C205.494 128.568 205.355 128.093 205.071 127.682C204.787 127.27 204.376 126.949 203.837 126.717C203.304 126.485 202.661 126.369 201.908 126.369H200.334V123.883H201.908C202.528 123.883 203.069 123.776 203.533 123.562C204.002 123.347 204.37 123.046 204.637 122.658C204.903 122.264 205.034 121.809 205.028 121.293C205.034 120.789 204.921 120.352 204.689 119.981C204.463 119.604 204.141 119.311 203.724 119.103C203.313 118.894 202.829 118.79 202.273 118.79C201.728 118.79 201.224 118.888 200.76 119.085C200.297 119.282 199.923 119.564 199.639 119.929C199.355 120.288 199.204 120.717 199.187 121.215H196.084C196.107 120.218 196.394 119.343 196.945 118.59C197.501 117.831 198.243 117.24 199.17 116.817C200.097 116.388 201.137 116.174 202.29 116.174C203.478 116.174 204.509 116.397 205.384 116.843C206.265 117.283 206.946 117.877 207.427 118.625C207.908 119.372 208.148 120.198 208.148 121.102C208.154 122.104 207.859 122.945 207.262 123.623C206.671 124.301 205.894 124.744 204.932 124.952V125.091C206.184 125.265 207.143 125.729 207.809 126.482C208.481 127.23 208.815 128.16 208.809 129.272C208.809 130.269 208.525 131.161 207.957 131.949C207.395 132.731 206.619 133.346 205.628 133.792C204.643 134.238 203.513 134.461 202.238 134.461Z" fill="#2F4C84"/>
<path d="M312.998 51.1503V48.5862L320.551 36.6525H322.689V40.303H321.386L316.301 48.3602V48.4993H326.844V51.1503H312.998ZM321.49 54.4531V50.368L321.525 49.2207V36.6525H324.567V54.4531H321.49Z" fill="#2F4C84"/>
<path d="M12.1014 331.338L20.6906 322.627C20.7928 322.524 20.9036 322.451 21.0229 322.408C21.1422 322.364 21.27 322.343 21.4063 322.343C21.5427 322.343 21.6705 322.364 21.7898 322.408C21.9091 322.451 22.0199 322.524 22.1221 322.627L30.7368 331.338C30.9754 331.579 31.0947 331.881 31.0947 332.243C31.0947 332.605 30.9669 332.915 30.7113 333.173C30.4557 333.432 30.1574 333.561 29.8166 333.561C29.4757 333.561 29.1775 333.432 28.9219 333.173L21.4063 325.574L13.8908 333.173C13.6522 333.414 13.3584 333.535 13.0094 333.535C12.6597 333.535 12.357 333.406 12.1014 333.147C11.8458 332.889 11.718 332.587 11.718 332.243C11.718 331.898 11.8458 331.596 12.1014 331.338Z" fill="#2F4C84"/>
<circle cx="479.407" cy="21.221" r="19.8867" fill="#00BA00" stroke="#00BA00" stroke-width="2.03966"/>
<path d="M471.248 22.7508L476.566 26.8301L489.605 16.6318" stroke="#FDFDFD" stroke-width="3.05949" stroke-linecap="round" stroke-linejoin="round"/>
</svg>
