<svg width="100" height="100" viewBox="0 0 100 100" fill="none" xmlns="http://www.w3.org/2000/svg">
<path d="M0 7.05556L7.11111 0L100 92.8889L92.9444 100L72.5555 79.6111C69.1111 83.3333 64.1111 86.3889 58.3333 87.8889V100H41.6667V87.8889C30.3889 85.0555 22.2222 76.6111 22.2222 66.6667H33.3333C33.3333 72.6667 40.9444 77.7778 50 77.7778C56.2778 77.7778 61.8889 75.3333 64.7222 71.7778L48.2222 55.2778C36.5556 52.3333 22.2222 48.6111 22.2222 33.3333C22.2222 32.0556 22.2222 30.8333 22.6111 29.6667L0 7.05556ZM41.6667 12.1111V0H58.3333V12.1111C69.6111 14.9444 77.7778 23.3889 77.7778 33.3333H66.6667C66.6667 27.3333 59.0556 22.2222 50 22.2222C47.9444 22.2222 46 22.5 44.1667 22.9444L35.5556 14.3333L41.6667 12.1111Z" fill="#35A8E0"/>
</svg>
