<svg width="100" height="100" viewBox="0 0 100 100" fill="none" xmlns="http://www.w3.org/2000/svg">
<path d="M27.8506 42.3329C25.841 42.3329 24.3119 41.4364 23.2635 39.6435C22.215 37.8506 22.2586 36.0821 23.3945 34.3381L42.9227 2.49017C43.9712 0.830058 45.4566 0 47.3788 0C49.301 0 50.7864 0.830058 51.8349 2.49017L71.3631 34.3381C72.4989 36.0856 72.5426 37.8558 71.4941 39.6488C70.4456 41.4417 68.9166 42.3364 66.907 42.3329H27.8506ZM76.2123 100C69.6593 100 64.0883 97.7055 59.4994 93.1166C54.9105 88.5277 52.6178 82.9585 52.6213 76.4089C52.6213 69.8558 54.9157 64.2848 59.5046 59.6959C64.0935 55.107 69.6628 52.8143 76.2123 52.8178C82.7654 52.8178 88.3364 55.1123 92.9253 59.7012C97.5142 64.2901 99.8069 69.8593 99.8034 76.4089C99.8034 82.962 97.509 88.533 92.9201 93.1219C88.3312 97.7108 82.7619 100.003 76.2123 100ZM5.43908 97.3788C3.95371 97.3788 2.70775 96.8755 1.7012 95.8689C0.694646 94.8624 0.193117 93.6182 0.196612 92.1363V60.6815C0.196612 59.1962 0.699889 57.9502 1.70644 56.9436C2.713 55.9371 3.95721 55.4356 5.43908 55.4391H36.8939C38.3792 55.4391 39.6252 55.9423 40.6317 56.9489C41.6383 57.9554 42.1398 59.1996 42.1363 60.6815V92.1363C42.1363 93.6217 41.633 94.8676 40.6265 95.8742C39.6199 96.8807 38.3757 97.3823 36.8939 97.3788H5.43908ZM76.2123 89.5151C79.8821 89.5151 82.9838 88.2481 85.5177 85.7143C88.0516 83.1804 89.3185 80.0786 89.3185 76.4089C89.3185 72.7392 88.0516 69.6374 85.5177 67.1035C82.9838 64.5697 79.8821 63.3027 76.2123 63.3027C72.5426 63.3027 69.4408 64.5697 66.907 67.1035C64.3731 69.6374 63.1062 72.7392 63.1062 76.4089C63.1062 80.0786 64.3731 83.1804 66.907 85.7143C69.4408 88.2481 72.5426 89.5151 76.2123 89.5151ZM10.6815 86.8938H31.6514V65.924H10.6815V86.8938ZM37.156 31.848H57.6016L47.3788 15.3342L37.156 31.848Z" fill="#35A8E0"/>
</svg>
