<svg width="118" height="100" viewBox="0 0 118 100" fill="none" xmlns="http://www.w3.org/2000/svg">
<path d="M92.3332 54.1667L100.3 69.5958L117.333 72.0708L104.833 83.3333L108.046 100L92.3332 90.625L76.6208 100L79.8332 83.3333L67.3333 72.0708L84.8333 69.5958L92.3332 54.1667ZM17.3333 50H42.3333V58.3333H17.3333V50ZM17.3333 33.3333H58.9999V41.6667H17.3333V33.3333ZM17.3333 16.6667H58.9999V25H17.3333V16.6667Z" fill="#35A8E0"/>
<path d="M59 91.6667H8.99996V8.33333H109V50H117.333V8.33333C117.333 6.1232 116.455 4.00358 114.893 2.44078C113.33 0.877973 111.21 0 109 0H8.99996C6.78982 0 4.67021 0.877973 3.1074 2.44078C1.5446 4.00358 0.666626 6.1232 0.666626 8.33333V91.6667C0.666626 93.8768 1.5446 95.9964 3.1074 97.5592C4.67021 99.122 6.78982 100 8.99996 100H59V91.6667Z" fill="#35A8E0"/>
</svg>
