<svg width="280" height="53" viewBox="0 0 280 53" fill="none" xmlns="http://www.w3.org/2000/svg">
<path d="M40.1486 2.88517C40.1486 4.47803 38.8889 5.77034 37.3363 5.77034H8.56874C7.01611 5.77034 5.75643 4.47803 5.75643 2.88517C5.75643 1.29232 7.01611 0 8.56874 0H37.3436C38.8889 0 40.1486 1.29232 40.1486 2.88517ZM37.3363 23.6148H8.56874C7.01611 23.6148 5.75643 24.9071 5.75643 26.5C5.75643 28.0929 7.01611 29.3852 8.56874 29.3852H37.3436C38.8962 29.3852 40.1559 28.0929 40.1559 26.5C40.1486 24.9071 38.8889 23.6148 37.3363 23.6148ZM43.0927 11.8112H25.8307C24.2781 11.8112 23.0184 13.1035 23.0184 14.6963C23.0184 16.2892 24.2781 17.5815 25.8307 17.5815H43.0927C44.6453 17.5815 45.905 16.2892 45.905 14.6963C45.905 13.096 44.6453 11.8112 43.0927 11.8112ZM20.0743 35.4185H2.8123C1.25968 35.4185 0 36.7108 0 38.3037C0 39.8965 1.25968 41.1888 2.8123 41.1888H20.0743C21.6269 41.1888 22.8866 39.8965 22.8866 38.3037C22.8866 36.7108 21.6269 35.4185 20.0743 35.4185ZM20.0596 47.2297H8.56874C7.01611 47.2297 5.75643 48.522 5.75643 50.1148C5.75643 51.7077 7.01611 53 8.56874 53H20.067C21.6196 53 22.8793 51.7077 22.8793 50.1148C22.8719 48.522 21.6123 47.2297 20.0596 47.2297Z" fill="url(#paint0_linear_675_158)"/>
<path d="M141.882 17.7168C141.882 17.7092 141.882 17.7092 141.882 17.7017V17.2209C141.985 14.5536 143.149 13.6445 146.232 13.8398V6.51418C137.905 6.05585 133.489 9.69989 133.489 17.0781V17.5665V17.7168H130.45V24.8921H133.489V25.0574V25.5458V25.5608V25.8764V26.0492V26.3648V46.591V47.0794H141.868V46.591V26.3798V26.0567V25.8914V25.5683V25.5458V25.0574V24.8921H146.379V17.7168H141.882Z" fill="white"/>
<path d="M119.435 17.7092V21.8642C117.963 19.287 115.077 17.2885 111.005 17.2885C110.954 17.2885 110.91 17.2885 110.859 17.296C110.815 17.296 110.771 17.2885 110.72 17.2885C103.894 17.2885 98.4672 23.0813 98.4672 32.3454C98.4672 41.6096 103.894 47.5076 110.676 47.5076C110.72 47.5076 110.771 47.5076 110.815 47.5001C110.859 47.5001 110.91 47.5076 110.954 47.5076C115.019 47.5076 117.912 45.509 119.428 42.9244V47.0794H127.806V44.089V18.686V17.7092H119.435ZM113.342 39.6485C113.298 39.6485 113.261 39.656 113.217 39.656C110.031 39.656 107.138 37.0263 107.138 32.3379C107.138 27.657 110.031 25.125 113.217 25.125C113.261 25.125 113.298 25.1325 113.334 25.1325C113.371 25.1325 113.415 25.125 113.452 25.125C113.415 25.125 113.371 25.1325 113.334 25.1325C116.52 25.1926 119.289 27.7622 119.289 32.3905C119.296 37.0188 116.527 39.5884 113.342 39.6485C113.378 39.6485 113.422 39.656 113.459 39.656C113.415 39.656 113.378 39.6485 113.342 39.6485Z" fill="white"/>
<path d="M71.1205 34.4267H65.928V47.0944H57.5424V11.8112H71.1132C79.5428 11.8112 83.7539 16.6874 83.7539 23.1715C83.7612 29.002 79.887 34.4267 71.1205 34.4267ZM70.4833 27.5894C73.8156 27.5894 75.2364 25.8839 75.2364 23.164C75.2364 20.4441 73.8156 18.7386 70.4833 18.7386H65.928V27.5894H70.4833Z" fill="white"/>
<path d="M86.8958 9.89526H95.2741V47.0944H86.8958V9.89526Z" fill="white"/>
<path d="M162.015 47.5001C153.981 47.5001 147.902 41.6997 147.902 32.368C147.902 23.0362 154.127 17.2358 162.11 17.2358C170.144 17.2358 176.318 23.0362 176.318 32.368C176.326 41.6997 170.049 47.5001 162.015 47.5001ZM162.015 39.6936C165.003 39.6936 167.793 37.3193 167.793 32.3604C167.793 27.349 165.047 25.0273 162.11 25.0273C159.071 25.0273 156.427 27.349 156.427 32.3604C156.427 37.3193 158.976 39.6936 162.015 39.6936Z" fill="white"/>
<path d="M188.241 47.0945H179.519V17.7168H188.241V22.6156C190.233 19.5125 193.346 17.4012 197.169 17.4012V26.9283H194.774C190.643 26.9283 188.241 28.401 188.241 33.4575V47.0945Z" fill="white"/>
<path d="M228.243 27.2738C228.243 27.7848 227.826 28.2055 227.335 28.2055H220.041C219.543 28.2055 219.133 27.7773 219.133 27.2738V19.7904C219.133 19.2795 219.55 18.8588 220.041 18.8588H227.335C227.833 18.8588 228.243 19.287 228.243 19.7904V27.2738Z" fill="white"/>
<path d="M231.385 39.408C231.385 39.656 231.187 39.8589 230.946 39.8589H227.423C227.181 39.8589 226.984 39.656 226.984 39.408V35.7941C226.984 35.5461 227.181 35.3433 227.423 35.3433H230.946C231.187 35.3433 231.385 35.5461 231.385 35.7941V39.408Z" fill="white"/>
<path d="M237.654 32.0525C237.654 32.4582 237.325 32.7963 236.929 32.7963H231.136C230.741 32.7963 230.411 32.4582 230.411 32.0525V26.1093C230.411 25.7036 230.741 25.3655 231.136 25.3655H236.929C237.325 25.3655 237.654 25.7036 237.654 26.1093V32.0525Z" fill="white"/>
<path d="M232.564 11.8938H222.978V13.7947H225.167V13.7872H232.564C243.074 13.7872 248.376 19.7754 248.376 29.4603C248.376 39.0925 243.074 45.0357 232.564 45.0357H225.167V35.3058H222.978V46.9366H232.564C244.194 46.9366 250.617 40.445 250.617 29.4678C250.617 18.4831 244.194 11.8938 232.564 11.8938Z" fill="white"/>
<path d="M217.521 13.7045H202.332V28.4384H216.049V30.3468H202.325V45.1784H217.514V47.0868H200.12V11.7886H217.514V13.7045H217.521Z" fill="white"/>
<path d="M256.037 11.7886H258.241V33.8556C258.241 42.2482 262.408 45.4189 268.092 45.4189C273.775 45.4189 277.796 42.2482 277.796 33.8556V11.7886H280V33.8105C280 43.3602 274.954 47.4325 268.092 47.4325C261.229 47.4325 256.037 43.3602 256.037 33.8105V11.7886Z" fill="white"/>
<defs>
<linearGradient id="paint0_linear_675_158" x1="0" y1="26.4991" x2="45.9034" y2="26.4991" gradientUnits="userSpaceOnUse">
<stop stop-color="#2C56A1"/>
<stop offset="0.1139" stop-color="#2B67AE"/>
<stop offset="0.2941" stop-color="#2B7EC1"/>
<stop offset="0.4747" stop-color="#2F90CF"/>
<stop offset="0.6534" stop-color="#349DD8"/>
<stop offset="0.8296" stop-color="#38A5DE"/>
<stop offset="1" stop-color="#39A8E0"/>
</linearGradient>
</defs>
</svg>
