<svg width="113" height="127" viewBox="0 0 113 127" fill="none" xmlns="http://www.w3.org/2000/svg">
<path d="M98.8299 6.91352C98.8299 10.7304 95.7291 13.827 91.9072 13.827H21.0929C17.2709 13.827 14.1701 10.7304 14.1701 6.91352C14.1701 3.09668 17.2709 0 21.0929 0H91.9252C95.7291 0 98.8299 3.09668 98.8299 6.91352ZM91.9072 56.5865H21.0929C17.2709 56.5865 14.1701 59.6832 14.1701 63.5C14.1701 67.3168 17.2709 70.4135 21.0929 70.4135H91.9252C95.7471 70.4135 98.848 67.3168 98.848 63.5C98.8299 59.6832 95.7291 56.5865 91.9072 56.5865ZM106.077 28.3022H63.585C59.7631 28.3022 56.6623 31.3989 56.6623 35.2158C56.6623 39.0326 59.7631 42.1293 63.585 42.1293H106.077C109.899 42.1293 113 39.0326 113 35.2158C113 31.3809 109.899 28.3022 106.077 28.3022ZM49.415 84.8707H6.92278C3.10083 84.8707 0 87.9674 0 91.7842C0 95.6011 3.10083 98.6978 6.92278 98.6978H49.415C53.2369 98.6978 56.3377 95.6011 56.3377 91.7842C56.3377 87.9674 53.2369 84.8707 49.415 84.8707ZM49.3789 113.173H21.0929C17.2709 113.173 14.1701 116.27 14.1701 120.086C14.1701 123.903 17.2709 127 21.0929 127H49.3969C53.2189 127 56.3197 123.903 56.3197 120.086C56.3017 116.27 53.2009 113.173 49.3789 113.173Z" fill="url(#paint0_linear_675_91)"/>
<defs>
<linearGradient id="paint0_linear_675_91" x1="0" y1="63.4978" x2="112.996" y2="63.4978" gradientUnits="userSpaceOnUse">
<stop stop-color="#2C56A1"/>
<stop offset="0.1139" stop-color="#2B67AE"/>
<stop offset="0.2941" stop-color="#2B7EC1"/>
<stop offset="0.4747" stop-color="#2F90CF"/>
<stop offset="0.6534" stop-color="#349DD8"/>
<stop offset="0.8296" stop-color="#38A5DE"/>
<stop offset="1" stop-color="#39A8E0"/>
</linearGradient>
</defs>
</svg>
