<svg width="17" height="27" viewBox="0 0 17 27" fill="none" xmlns="http://www.w3.org/2000/svg">
<path d="M1.82719 4.15698L11.1702 13.5L1.82719 22.843C1.40992 23.2603 1.18602 23.7699 1.18602 24.3509C1.18602 24.932 1.40992 25.4416 1.82719 25.8588C2.2497 26.2813 2.77222 26.5 3.36808 26.5C3.9535 26.5 4.46826 26.2995 4.87598 25.8918L4.52243 25.5383L4.87598 25.8918L15.9908 14.777L15.9908 14.777C16.1675 14.6003 16.305 14.3959 16.3878 14.1629C16.4639 13.9511 16.5 13.7288 16.5 13.5C16.5 13.2712 16.4639 13.0489 16.3878 12.8371C16.305 12.6041 16.1675 12.3997 15.9908 12.223L15.9902 12.2224L4.87598 1.14117C4.45871 0.723898 3.94911 0.5 3.36808 0.5C2.78705 0.5 2.27744 0.723898 1.86017 1.14117C1.44013 1.56121 1.219 2.07751 1.219 2.66623C1.219 3.24405 1.42205 3.75184 1.82719 4.15698Z" fill="#E2FCFF" stroke="#E2FCFF"/>
</svg>
